<?xml version="1.0" encoding="iso-8859-1"?>
<!-- Generator: Adobe Illustrator 19.0.0, SVG Export Plug-In . SVG Version: 6.00 Build 0)  -->
<svg version="1.1" id="Layer_1" xmlns="http://www.w3.org/2000/svg" xmlns:xlink="http://www.w3.org/1999/xlink" x="0px" y="0px"
	 viewBox="0 0 495 495" style="enable-background:new 0 0 495 495;" xml:space="preserve">
<g>
	<polygon style="fill:#C70024;" points="247.5,0 247.5,40 455,40 455,455 247.5,455 247.5,495 495,495 495,0 	"/>
	<polygon style="fill:#FF0C38;" points="40,455 40,40 247.5,40 247.5,0 0,0 0,495 247.5,495 247.5,455 	"/>
	<path style="fill:#FF0C38;" d="M168.65,334.99c40.78,0,60.275-19.125,60.275-19.125L217.36,284.48c0,0-18.77,20.94-46.915,20.94
		c-24.88,0-42.575-21.66-42.575-56.29c0-44.395,22.36-60.275,44.395-60.275c31.755,0,41.855,20.585,50.505,46.915l11.545,36.095
		c11.54,35,33.2,63.145,95.625,63.145c44.745,0,75.06-13.715,75.06-49.805c0-29.22-16.605-44.375-47.64-51.585l-23.085-5.055
		c-15.88-3.615-20.565-10.1-20.565-20.94c0-12.265,9.745-19.475,25.625-19.475c17.325,0,26.7,6.485,28.145,22.015l36.07-4.335
		c-2.89-32.48-25.25-45.82-62.07-45.82c-32.46,0-64.215,12.265-64.215,51.6c0,24.53,11.915,40.04,41.855,47.265l24.53,5.76
		c18.4,4.34,24.53,11.915,24.53,22.365c0,13.36-12.965,18.77-37.52,18.77c-36.445,0-51.6-19.12-60.25-45.47l-11.915-36.075
		c-15.14-46.91-39.315-64.235-87.305-64.235c-53.05,0-81.19,33.575-81.19,90.565C90,305.42,118.14,334.99,168.65,334.99z"/>
</g>
<g>
</g>
<g>
</g>
<g>
</g>
<g>
</g>
<g>
</g>
<g>
</g>
<g>
</g>
<g>
</g>
<g>
</g>
<g>
</g>
<g>
</g>
<g>
</g>
<g>
</g>
<g>
</g>
<g>
</g>
</svg>
