<?xml version="1.0" ?><!DOCTYPE svg  PUBLIC '-//W3C//DTD SVG 1.1//EN'  'http://www.w3.org/Graphics/SVG/1.1/DTD/svg11.dtd'><svg enable-background="new 0 0 512 512" height="512px" id="Layer_1" version="1.1" viewBox="0 0 512 512" width="512px" xml:space="preserve" xmlns="http://www.w3.org/2000/svg" xmlns:xlink="http://www.w3.org/1999/xlink"><g><path clip-rule="evenodd" d="M256.23,512C396.81,512,512,396.81,512,256.23   C512,115.184,396.81,0,256.23,0C115.184,0,0,115.184,0,256.23C0,396.81,115.184,512,256.23,512L256.23,512z" fill="#E1584B" fill-rule="evenodd"/><path clip-rule="evenodd" d="M184.574,319.708c-36.738,5.906-55.783-12.686-61.228-45.339   c-4.984-30.387,3.179-64.399,24.036-76.648c13.155-7.71,32.653-8.163,45.808-2.718c29.927,11.788,37.637,57.143,48.065,88.428   c11.342,33.106,34.473,61.682,70.75,67.118c26.747,3.625,53.057,3.625,78.897-1.813c18.155-3.624,36.746-17.686,39.918-40.354   c9.515-61.682-49.885-65.306-80.272-73.477c-30.841-8.155-23.123-34.918-5.89-42.621c7.702-3.179,23.122-2.726,30.387,0   c13.593,5.437,14.952,14.959,15.857,21.764l38.559-4.531c0-3.179-0.906-10.436-2.718-15.42   c-4.547-14.514-14.968-24.036-29.935-29.481c-23.139-8.616-47.167-8.616-70.289-0.906c-17.233,5.898-32.2,19.498-36.277,40.363   c-11.343,61.673,48.51,63.938,77.538,72.563c29.935,8.608,25.403,30.388,17.686,37.184c-8.608,7.249-24.028,7.702-34.918,7.702   c-13.608,0.453-28.575-1.813-40.355-9.515c-36.73-22.231-32.199-81.632-60.774-120.636c-34.465-46.706-130.604-44.44-157.358,10.89   c-10.89,22.67-14.514,51.698-10.437,79.812c4.086,28.122,17.686,47.167,34.926,58.963c27.661,19.498,96.138,17.686,117.901-8.171   c-3.625-7.702-9.522-24.935-12.241-34.012C214.954,305.194,204.072,316.537,184.574,319.708L184.574,319.708z" fill="#FFFFFF" fill-rule="evenodd"/></g></svg>
