<svg xmlns="http://www.w3.org/2000/svg" viewBox="0 0 495 495"><path fill="#fff" d="M247.5 0v40H455v415H247.5v40H495V0z"/><path fill="#fff" d="M40 455V40h207.5V0H0v495h247.5v-40z"/><path d="M168.65 334.99c40.78 0 60.275-19.125 60.275-19.125L217.36 284.48s-18.77 20.94-46.915 20.94c-24.88 0-42.575-21.66-42.575-56.29 0-44.395 22.36-60.275 44.395-60.275 31.755 0 41.855 20.585 50.505 46.915l11.545 36.095c11.54 35 33.2 63.145 95.625 63.145 44.745 0 75.06-13.715 75.06-49.805 0-29.22-16.605-44.375-47.64-51.585l-23.085-5.055c-15.88-3.615-20.565-10.1-20.565-20.94 0-12.265 9.745-19.475 25.625-19.475 17.325 0 26.7 6.485 28.145 22.015l36.07-4.335c-2.89-32.48-25.25-45.82-62.07-45.82-32.46 0-64.215 12.265-64.215 51.6 0 24.53 11.915 40.04 41.855 47.265l24.53 5.76c18.4 4.34 24.53 11.915 24.53 22.365 0 13.36-12.965 18.77-37.52 18.77-36.445 0-51.6-19.12-60.25-45.47l-11.915-36.075c-15.14-46.91-39.315-64.235-87.305-64.235-53.05 0-81.19 33.575-81.19 90.565 0 54.865 28.14 84.435 78.65 84.435z" fill="#D51007"/></svg>
