<svg width="292" height="292" viewBox="0 0 292 292" xmlns="http://www.w3.org/2000/svg"><title>logo</title><path d="M145.659.004c80.45 0 145.669 65.219 145.669 145.66s-65.219 145.66-145.668 145.66C65.219 291.324 0 226.104 0 145.663S65.219.004 145.659.004zm56.644 137.503l-4.16-1.229c-10.205-2.959-16.341-4.743-16.341-12.072 0-5.936 4.962-10.242 11.808-10.242 5.244 0 9.158 2.012 12.663 6.527.319.428.947.564 1.457.319l10.278-4.834.583-.637-.109-.819c-5.508-9.049-13.464-13.446-24.307-13.446-16.496 0-27.147 9.213-27.147 23.469 0 14.584 10.315 20.483 29.341 26.264 11.006 3.396 15.895 5.189 15.895 12.427 0 8.148-7.948 13.992-18.808 13.656-11.361-.364-14.812-5.927-19.154-15.039a4015.118 4015.118 0 0 1-15.74-33.62c-8.375-17.834-24.971-28.039-45.537-28.039-27.166 0-49.269 20.392-49.269 45.482 0 25.081 22.104 45.482 49.269 45.482 14.812 0 28.704-6.063 38.108-16.642l.164-1.083-6.209-13.228-1.011-.637-1.056.564c-5.863 10.351-17.361 16.769-29.997 16.769-18.644 0-33.802-13.992-33.802-31.226 0-17.215 15.167-31.226 33.802-31.226 13.574 0 26.009 7.429 30.944 18.535l15.367 32.355 1.757 3.623c6.955 14.939 17.161 21.621 33.147 21.676 18.99 0 33.32-11.616 33.32-27.029.007-15.486-9.252-21.285-25.256-26.1z" fill="#FFF"/></svg>